<?xml version="1.0" encoding="utf-8"?>
<!-- Generator: Adobe Illustrator 24.3.0, SVG Export Plug-In . SVG Version: 6.00 Build 0)  -->
<svg version="1.1" id="Layer_1" xmlns="http://www.w3.org/2000/svg" xmlns:xlink="http://www.w3.org/1999/xlink" x="0px" y="0px"
	 viewBox="0 0 15 15" style="enable-background:new 0 0 15 15;" xml:space="preserve">
<style type="text/css">
	.st0{fill:#FFFFFF;}
	.st1{fill:#1876F1;}
	.st2{fill:#167EE5;}
	.st3{fill:#FED400;}
	.st4{fill:#FE4B26;}
	.st5{fill:#12B247;}
	.st6{fill:#D83F21;}
	.st7{fill:#0F983E;}
</style>
<g>
	<circle class="st0" cx="7.5" cy="7.5" r="7.5"/>
	<g>
		<path class="st2" d="M12.64,6.52c-1.5,0-2.99,0-4.49,0c-0.27,0-0.41,0.15-0.41,0.42c0,0.44,0,0.88,0,1.32
			c0,0.33,0.13,0.47,0.46,0.47c0.78,0,1.57,0,2.35,0c0.04,0,0.08,0,0.13,0c-0.02,0.05-0.03,0.08-0.04,0.11
			c-0.12,0.29-0.29,0.56-0.48,0.81c-0.26,0.33-0.59,0.6-0.95,0.82c0,0,0,0,0,0c0.34,0.59,0.68,1.18,1.02,1.77
			c0.02,0.04,0.05,0.08,0.07,0.12c0,0,0,0,0,0c0,0,0,0,0,0c0.01-0.01,0.03-0.01,0.04-0.02c1.33-0.8,2.22-1.94,2.6-3.45
			c0.17-0.66,0.22-1.33,0.11-2.01C13.02,6.63,12.89,6.52,12.64,6.52z"/>
		<path class="st3" d="M4.5,9.14C4.1,8.38,3.98,7.59,4.16,6.75C4.24,6.41,4.38,6.1,4.53,5.79C3.9,5.42,3.27,5.06,2.64,4.7
			c0,0,0,0,0,0C2.62,4.73,2.6,4.75,2.58,4.79C1.82,6.2,1.68,7.69,2.15,9.22c0.12,0.38,0.27,0.75,0.49,1.08
			C3.28,9.94,3.9,9.58,4.53,9.21C4.52,9.19,4.51,9.16,4.5,9.14z"/>
		<path class="st4" d="M2.75,4.72C3.31,5.05,3.88,5.38,4.44,5.7c0.04,0.02,0.08,0.04,0.09,0.09c0.02-0.03,0.05-0.06,0.07-0.1
			c0.2-0.32,0.45-0.61,0.75-0.85C5.98,4.34,6.7,4.09,7.5,4.08c0-0.73,0-1.46,0-2.19C7.25,1.87,6.99,1.9,6.75,1.93
			c-1.36,0.2-2.51,0.81-3.43,1.83C3.05,4.05,2.82,4.35,2.64,4.7c0,0,0,0,0,0C2.68,4.69,2.72,4.71,2.75,4.72z"/>
		<path class="st4" d="M4.44,5.7C3.88,5.38,3.31,5.05,2.75,4.72C2.72,4.71,2.68,4.69,2.64,4.7C3.27,5.06,3.9,5.42,4.53,5.79
			C4.52,5.74,4.48,5.72,4.44,5.7z"/>
		<path class="st5" d="M7.46,10.92c-1-0.03-1.84-0.41-2.51-1.16C4.79,9.6,4.67,9.4,4.53,9.21l0,0l0,0C4.53,9.26,4.49,9.27,4.46,9.29
			C3.9,9.62,3.33,9.94,2.77,10.27c-0.04,0.02-0.07,0.05-0.12,0.04c0.02,0.03,0.03,0.07,0.05,0.1c0.6,0.98,1.41,1.71,2.45,2.2
			c0.75,0.35,1.53,0.52,2.35,0.51c0-0.73,0-1.46,0-2.19C7.48,10.92,7.47,10.92,7.46,10.92z"/>
		<path class="st5" d="M2.77,10.27C3.33,9.94,3.9,9.62,4.46,9.29c0.03-0.02,0.06-0.04,0.07-0.08l0,0C3.9,9.58,3.28,9.94,2.65,10.31
			C2.69,10.32,2.73,10.29,2.77,10.27z"/>
		<path class="st6" d="M7.54,2.03c0,0.63,0,1.27,0,1.9c0,0.05,0,0.1-0.04,0.14C7.68,4.1,7.87,4.1,8.05,4.13
			c0.6,0.1,1.13,0.35,1.6,0.73c0.17,0.14,0.36,0.13,0.52-0.03c0.34-0.33,0.67-0.67,1-1c0.19-0.19,0.17-0.42-0.03-0.59
			c-0.41-0.35-0.86-0.64-1.35-0.86c-0.73-0.33-1.5-0.5-2.3-0.49C7.54,1.93,7.54,1.98,7.54,2.03z"/>
		<path class="st6" d="M7.54,3.93c0-0.63,0-1.27,0-1.9c0-0.05,0-0.1-0.04-0.14c0,0.73,0,1.46,0,2.19C7.54,4.03,7.54,3.98,7.54,3.93z
			"/>
		<path class="st7" d="M10.23,12.28c-0.33-0.57-0.66-1.15-0.99-1.72c-0.02-0.03-0.05-0.06-0.03-0.1c0,0,0,0,0,0
			c-0.16,0.07-0.32,0.15-0.48,0.22c-0.39,0.16-0.81,0.22-1.23,0.24c0.04,0.04,0.04,0.09,0.04,0.14c0,0.63,0,1.27,0,1.9
			c0,0.05,0,0.1-0.04,0.14c0.16,0.01,0.32,0,0.48-0.02c0.6-0.05,1.18-0.19,1.74-0.43c0.21-0.09,0.41-0.18,0.6-0.31
			C10.27,12.35,10.25,12.32,10.23,12.28z"/>
		<path class="st7" d="M10.24,12.23c-0.34-0.59-0.68-1.18-1.02-1.77c-0.02,0.04,0.01,0.07,0.03,0.1c0.33,0.58,0.66,1.15,0.99,1.72
			c0.02,0.03,0.04,0.06,0.08,0.07c0,0,0,0,0,0C10.29,12.31,10.26,12.27,10.24,12.23z"/>
		<path class="st7" d="M7.54,12.97c0-0.63,0-1.27,0-1.9c0-0.05,0-0.1-0.04-0.14c0,0.73,0,1.46,0,2.19
			C7.54,13.07,7.54,13.02,7.54,12.97z"/>
	</g>
</g>
</svg>
